<svg width="32" height="32" viewBox="0 0 32 32" fill="none" xmlns="http://www.w3.org/2000/svg">
  <rect width="32" height="32" rx="8" fill="#1E293B"/>
  <g transform="translate(6, 4)">
    <!-- Galgen -->
    <line x1="0" y1="22" x2="10" y2="22" stroke="#E2E8F0" stroke-width="1.5"/>
    <line x1="5" y1="2" x2="5" y2="22" stroke="#E2E8F0" stroke-width="1.5"/>
    <line x1="5" y1="2" x2="15" y2="2" stroke="#E2E8F0" stroke-width="1.5"/>
    <line x1="15" y1="2" x2="15" y2="5" stroke="#E2E8F0" stroke-width="1.5"/>
    
    <!-- Hangman mit Anzug -->
    <circle cx="15" cy="7" r="2" fill="#F8FAFC"/>
    <path d="M12 11L15 9L18 11V17H12V11Z" fill="#4F46E5"/>
    <path d="M13.5 9L15 11L16.5 9V13H13.5V9Z" fill="#F8FAFC"/>
    <line x1="15" y1="17" x2="13" y2="21" stroke="#4F46E5" stroke-width="1.5"/>
    <line x1="15" y1="17" x2="17" y2="21" stroke="#4F46E5" stroke-width="1.5"/>
    <line x1="12" y1="12" x2="10" y2="14" stroke="#4F46E5" stroke-width="1.5"/>
    <line x1="18" y1="12" x2="20" y2="14" stroke="#4F46E5" stroke-width="1.5"/>
  </g>
</svg> 