<svg width="1200" height="630" viewBox="0 0 1200 630" fill="none" xmlns="http://www.w3.org/2000/svg">
  <!-- Hintergrund mit Glassmorphism-Effekt -->
  <rect width="1200" height="630" fill="#0F172A"/>
  
  <!-- Dekorative Elemente -->
  <circle cx="300" cy="200" r="250" fill="#6366F1" opacity="0.1"/>
  <circle cx="900" cy="450" r="300" fill="#8B5CF6" opacity="0.1"/>
  
  <!-- Gitter-Hintergrund -->
  <g opacity="0.05">
    <path d="M0 0 L1200 0 L1200 630 L0 630 L0 0 Z" stroke="#E2E8F0" stroke-width="1" fill="none"/>
    <path d="M0 63 L1200 63" stroke="#E2E8F0" stroke-width="1"/>
    <path d="M0 126 L1200 126" stroke="#E2E8F0" stroke-width="1"/>
    <path d="M0 189 L1200 189" stroke="#E2E8F0" stroke-width="1"/>
    <path d="M0 252 L1200 252" stroke="#E2E8F0" stroke-width="1"/>
    <path d="M0 315 L1200 315" stroke="#E2E8F0" stroke-width="1"/>
    <path d="M0 378 L1200 378" stroke="#E2E8F0" stroke-width="1"/>
    <path d="M0 441 L1200 441" stroke="#E2E8F0" stroke-width="1"/>
    <path d="M0 504 L1200 504" stroke="#E2E8F0" stroke-width="1"/>
    <path d="M0 567 L1200 567" stroke="#E2E8F0" stroke-width="1"/>
    <path d="M120 0 L120 630" stroke="#E2E8F0" stroke-width="1"/>
    <path d="M240 0 L240 630" stroke="#E2E8F0" stroke-width="1"/>
    <path d="M360 0 L360 630" stroke="#E2E8F0" stroke-width="1"/>
    <path d="M480 0 L480 630" stroke="#E2E8F0" stroke-width="1"/>
    <path d="M600 0 L600 630" stroke="#E2E8F0" stroke-width="1"/>
    <path d="M720 0 L720 630" stroke="#E2E8F0" stroke-width="1"/>
    <path d="M840 0 L840 630" stroke="#E2E8F0" stroke-width="1"/>
    <path d="M960 0 L960 630" stroke="#E2E8F0" stroke-width="1"/>
    <path d="M1080 0 L1080 630" stroke="#E2E8F0" stroke-width="1"/>
  </g>
  
  <!-- Glassmorphism-Karte -->
  <rect x="200" y="115" width="800" height="400" rx="20" fill="#1E293B" opacity="0.7"/>
  <rect x="200" y="115" width="800" height="400" rx="20" stroke="#475569" stroke-width="1" fill="none"/>
  
  <!-- Titel -->
  <text x="600" y="200" font-family="Arial" font-size="72" font-weight="bold" fill="#F8FAFC" text-anchor="middle">HWZ HANGMAN</text>
  <text x="600" y="260" font-family="Arial" font-size="32" fill="#94A3B8" text-anchor="middle">Executive MBA Edition</text>
  
  <!-- Hangman-Figur -->
  <g transform="translate(350, 300)">
    <!-- Galgen -->
    <line x1="0" y1="150" x2="80" y2="150" stroke="#E2E8F0" stroke-width="4"/>
    <line x1="40" y1="20" x2="40" y2="150" stroke="#E2E8F0" stroke-width="4"/>
    <line x1="40" y1="20" x2="120" y2="20" stroke="#E2E8F0" stroke-width="4"/>
    <line x1="120" y1="20" x2="120" y2="40" stroke="#E2E8F0" stroke-width="4"/>
    
    <!-- Business-Hangman -->
    <rect x="100" y="70" width="40" height="60" rx="2" fill="#4F46E5"/>
    <rect x="105" y="60" width="30" height="15" fill="#F8FAFC"/>
    <rect x="115" y="60" width="10" height="40" fill="#8B5CF6"/>
    <circle cx="120" cy="50" r="15" fill="#F8FAFC"/>
    <line x1="120" y1="130" x2="100" y2="170" stroke="#4F46E5" stroke-width="4"/>
    <line x1="120" y1="130" x2="140" y2="170" stroke="#4F46E5" stroke-width="4"/>
    <line x1="100" y1="80" x2="80" y2="100" stroke="#4F46E5" stroke-width="4"/>
    <line x1="140" y1="80" x2="160" y2="100" stroke="#4F46E5" stroke-width="4"/>
  </g>
  
  <!-- Wort-Anzeige -->
  <g transform="translate(600, 350)">
    <rect x="-200" y="0" width="400" height="60" rx="10" fill="#334155" opacity="0.5"/>
    <rect x="-200" y="0" width="400" height="60" rx="10" stroke="#475569" stroke-width="1" fill="none"/>
    
    <!-- Buchstaben -->
    <g transform="translate(-160, 30)">
      <rect x="0" y="0" width="40" height="40" rx="5" fill="#334155" opacity="0.7"/>
      <text x="20" y="28" font-family="Arial" font-size="24" fill="#10B981" text-anchor="middle">H</text>
    </g>
    
    <g transform="translate(-110, 30)">
      <rect x="0" y="0" width="40" height="40" rx="5" fill="#334155" opacity="0.7"/>
      <text x="20" y="28" font-family="Arial" font-size="24" fill="#10B981" text-anchor="middle">W</text>
    </g>
    
    <g transform="translate(-60, 30)">
      <rect x="0" y="0" width="40" height="40" rx="5" fill="#334155" opacity="0.7"/>
      <text x="20" y="28" font-family="Arial" font-size="24" fill="#10B981" text-anchor="middle">Z</text>
    </g>
    
    <g transform="translate(0, 30)">
      <rect x="0" y="0" width="40" height="40" rx="5" fill="#334155" opacity="0.7"/>
      <line x1="10" y1="35" x2="30" y2="35" stroke="#94A3B8" stroke-width="2"/>
    </g>
    
    <g transform="translate(50, 30)">
      <rect x="0" y="0" width="40" height="40" rx="5" fill="#334155" opacity="0.7"/>
      <line x1="10" y1="35" x2="30" y2="35" stroke="#94A3B8" stroke-width="2"/>
    </g>
    
    <g transform="translate(100, 30)">
      <rect x="0" y="0" width="40" height="40" rx="5" fill="#334155" opacity="0.7"/>
      <line x1="10" y1="35" x2="30" y2="35" stroke="#94A3B8" stroke-width="2"/>
    </g>
    
    <g transform="translate(150, 30)">
      <rect x="0" y="0" width="40" height="40" rx="5" fill="#334155" opacity="0.7"/>
      <line x1="10" y1="35" x2="30" y2="35" stroke="#94A3B8" stroke-width="2"/>
    </g>
  </g>
  
  <!-- URL und Beschreibung -->
  <text x="600" y="480" font-family="Arial" font-size="24" fill="#94A3B8" text-anchor="middle">Errate die EMBA-Buzzwords im modernen Glassmorphism-Design</text>
  <text x="600" y="520" font-family="Arial" font-size="20" fill="#64748B" text-anchor="middle">hwz-hangman.vercel.app</text>
  
  <!-- HWZ Logo -->
  <text x="600" y="580" font-family="Arial" font-size="16" font-weight="bold" fill="#F8FAFC" text-anchor="middle">Entwickelt für die HWZ - Hochschule für Wirtschaft Zürich | Executive MBA Programm</text>
</svg> 